ply
format ascii 1.0
comment ORCHAV repository-authored low-poly sedan placeholder.
comment Coordinates are in meters in the local target frame.
element vertex 80
property float x
property float y
property float z
element face 136
property list uchar int vertex_indices
end_header
-2.300000 -0.900000 0.250000
2.300000 -0.900000 0.250000
2.300000 0.900000 0.250000
-2.300000 0.900000 0.250000
-2.300000 -0.900000 0.950000
2.300000 -0.900000 0.950000
2.300000 0.900000 0.950000
-2.300000 0.900000 0.950000
-0.950000 -0.740000 0.950000
0.950000 -0.740000 0.950000
0.950000 0.740000 0.950000
-0.950000 0.740000 0.950000
-0.500000 -0.580000 1.550000
0.550000 -0.580000 1.550000
0.550000 0.580000 1.550000
-0.500000 0.580000 1.550000
1.830000 -1.180000 0.350000
1.719000 -1.180000 0.619000
1.450000 -1.180000 0.730000
1.181000 -1.180000 0.619000
1.070000 -1.180000 0.350000
1.181000 -1.180000 0.081000
1.450000 -1.180000 -0.030000
1.719000 -1.180000 0.081000
1.830000 -0.860000 0.350000
1.719000 -0.860000 0.619000
1.450000 -0.860000 0.730000
1.181000 -0.860000 0.619000
1.070000 -0.860000 0.350000
1.181000 -0.860000 0.081000
1.450000 -0.860000 -0.030000
1.719000 -0.860000 0.081000
-1.070000 -1.180000 0.350000
-1.181000 -1.180000 0.619000
-1.450000 -1.180000 0.730000
-1.719000 -1.180000 0.619000
-1.830000 -1.180000 0.350000
-1.719000 -1.180000 0.081000
-1.450000 -1.180000 -0.030000
-1.181000 -1.180000 0.081000
-1.070000 -0.860000 0.350000
-1.181000 -0.860000 0.619000
-1.450000 -0.860000 0.730000
-1.719000 -0.860000 0.619000
-1.830000 -0.860000 0.350000
-1.719000 -0.860000 0.081000
-1.450000 -0.860000 -0.030000
-1.181000 -0.860000 0.081000
1.830000 1.180000 0.350000
1.719000 1.180000 0.619000
1.450000 1.180000 0.730000
1.181000 1.180000 0.619000
1.070000 1.180000 0.350000
1.181000 1.180000 0.081000
1.450000 1.180000 -0.030000
1.719000 1.180000 0.081000
1.830000 0.860000 0.350000
1.719000 0.860000 0.619000
1.450000 0.860000 0.730000
1.181000 0.860000 0.619000
1.070000 0.860000 0.350000
1.181000 0.860000 0.081000
1.450000 0.860000 -0.030000
1.719000 0.860000 0.081000
-1.070000 1.180000 0.350000
-1.181000 1.180000 0.619000
-1.450000 1.180000 0.730000
-1.719000 1.180000 0.619000
-1.830000 1.180000 0.350000
-1.719000 1.180000 0.081000
-1.450000 1.180000 -0.030000
-1.181000 1.180000 0.081000
-1.070000 0.860000 0.350000
-1.181000 0.860000 0.619000
-1.450000 0.860000 0.730000
-1.719000 0.860000 0.619000
-1.830000 0.860000 0.350000
-1.719000 0.860000 0.081000
-1.450000 0.860000 -0.030000
-1.181000 0.860000 0.081000
3 0 1 2
3 0 2 3
3 4 7 6
3 4 6 5
3 0 4 5
3 0 5 1
3 1 5 6
3 1 6 2
3 2 6 7
3 2 7 3
3 3 7 4
3 3 4 0
3 8 11 10
3 8 10 9
3 12 15 14
3 12 14 13
3 8 12 13
3 8 13 9
3 9 13 14
3 9 14 10
3 10 14 15
3 10 15 11
3 11 15 12
3 11 12 8
3 16 17 18
3 16 18 19
3 16 19 20
3 16 20 21
3 16 21 22
3 16 22 23
3 31 30 29
3 31 29 28
3 31 28 27
3 31 27 26
3 31 26 25
3 31 25 24
3 16 17 25
3 16 25 24
3 17 18 26
3 17 26 25
3 18 19 27
3 18 27 26
3 19 20 28
3 19 28 27
3 20 21 29
3 20 29 28
3 21 22 30
3 21 30 29
3 22 23 31
3 22 31 30
3 23 16 24
3 23 24 31
3 32 33 34
3 32 34 35
3 32 35 36
3 32 36 37
3 32 37 38
3 32 38 39
3 47 46 45
3 47 45 44
3 47 44 43
3 47 43 42
3 47 42 41
3 47 41 40
3 32 33 41
3 32 41 40
3 33 34 42
3 33 42 41
3 34 35 43
3 34 43 42
3 35 36 44
3 35 44 43
3 36 37 45
3 36 45 44
3 37 38 46
3 37 46 45
3 38 39 47
3 38 47 46
3 39 32 40
3 39 40 47
3 48 49 50
3 48 50 51
3 48 51 52
3 48 52 53
3 48 53 54
3 48 54 55
3 63 62 61
3 63 61 60
3 63 60 59
3 63 59 58
3 63 58 57
3 63 57 56
3 48 49 57
3 48 57 56
3 49 50 58
3 49 58 57
3 50 51 59
3 50 59 58
3 51 52 60
3 51 60 59
3 52 53 61
3 52 61 60
3 53 54 62
3 53 62 61
3 54 55 63
3 54 63 62
3 55 48 56
3 55 56 63
3 64 65 66
3 64 66 67
3 64 67 68
3 64 68 69
3 64 69 70
3 64 70 71
3 79 78 77
3 79 77 76
3 79 76 75
3 79 75 74
3 79 74 73
3 79 73 72
3 64 65 73
3 64 73 72
3 65 66 74
3 65 74 73
3 66 67 75
3 66 75 74
3 67 68 76
3 67 76 75
3 68 69 77
3 68 77 76
3 69 70 78
3 69 78 77
3 70 71 79
3 70 79 78
3 71 64 72
3 71 72 79
